<svg xmlns="http://www.w3.org/2000/svg" xmlns:xlink="http://www.w3.org/1999/xlink" xmlns:fi="http://pattern.flaticon.com/" x="0" y="0" width="700" height="350" viewBox="0 0 700 350"><rect x="0px" y="0px" width="100%" height="100%" opacity="1" fill="#000000"/><defs><g transform="matrix(0.1697916491523753 0.04549553527192747 -0.04549553527192747 0.1697916491523753 -31.759909144918396 -55.56847456534078)" id="L1_170"><path d="m469.042969 365.914062h10.914062c17.667969 0 32.042969-14.375 32.042969-32.042968v-3.867188c0-17.667968-14.375-32.042968-32.042969-32.042968h-54.058593c18.039062-30.355469 27.5-64.777344 27.5-100.5625 0-52.792969-20.578126-102.410157-57.941407-139.707032-37.277343-37.210937-86.789062-57.691406-139.453125-57.691406-.121094 0-.242187 0-.363281 0-37.042969.0664062-72.539063 10.363281-103.332031 29.539062-4.964844-3.59375-10.914063-5.539062-17.167969-5.539062h-106.566406c-15.757813 0-28.574219 12.816406-28.574219 28.574219v3.296875c0 15.757812 12.816406 28.574218 28.574219 28.574218h9.195312c4.730469 0 8.574219 3.847657 8.574219 8.574219 0 4.726563-3.84375 8.574219-8.574219 8.574219h-9.195312c-15.757813 0-28.574219 12.816406-28.574219 28.574219v3.257812c0 15.757813 12.816406 28.574219 28.574219 28.574219h33.214843c-2.183593 12.023438-3.269531 24.332031-3.183593 36.808594.3125 44.621094 15.9375 88.226562 44.011719 122.847656.050781.066406.101562.132812.15625.203125l132.742187 170.140625h-77.847656c-5.523438 0-10 4.476562-10 10s4.476562 10 10 10h214.441406c5.523437 0 10-4.476562 10-10s-4.476563-10-10-10h-95.617187l45.257812-57.984375c3.933594 13.824219 16.667969 23.984375 31.738281 23.984375h126.46875c17.667969 0 32.042969-14.375 32.042969-32.042969v-3.914062c0-17.667969-14.375-32.042969-32.042969-32.042969h-10.914062c-6.640625 0-12.042969-5.402344-12.042969-12.042969s5.402344-12.042969 12.042969-12.042969zm-440.46875-223.914062c-4.726563 0-8.574219-3.847656-8.574219-8.574219v-3.257812c0-4.730469 3.847656-8.574219 8.574219-8.574219h9.195312c15.757813 0 28.574219-12.820312 28.574219-28.574219 0-15.753906-12.816406-28.574219-28.574219-28.574219h-9.195312c-4.726563 0-8.574219-3.84375-8.574219-8.574218v-3.296875c0-4.726563 3.847656-8.574219 8.574219-8.574219h103.480469c-5.578126 4.535156-10.953126 9.386719-16.09375 14.566406-23.550782 23.761719-40.34375 52.339844-49.449219 83.433594zm89.847656 167.386719c-25.765625-31.609375-39.53125-69.894531-39.820313-110.71875-.328124-47.386719 17.984376-92.144531 51.5625-126.019531 33.574219-33.867188 78.148438-52.5625 125.511719-52.648438h.328125c47.324219 0 91.824219 18.40625 125.324219 51.847656 33.578125 33.519532 52.074219 78.105469 52.074219 125.550782 0 36.242187-10.792969 70.917968-31.242188 100.5625h-66.351562c28.246094-23.144532 46.300781-58.285157 46.300781-97.570313 0-69.535156-56.574219-126.109375-126.109375-126.109375s-126.109375 56.574219-126.109375 126.109375c0 69.539063 56.574219 126.109375 126.109375 126.109375 1.011719 0 2.023438-.015625 3.03125-.039062-4.472656 7.996093-7.03125 17.195312-7.03125 26.988281v3.0625c0 30.59375 24.894531 55.488281 55.488281 55.488281 1.855469 0 3.617188.398438 5.214844 1.101562l-56.699219 72.644532-137.179687-175.824219c-.128907-.183594-.261719-.359375-.402344-.535156zm168.800781-7.578125c-9.875 3.046875-20.359375 4.691406-31.222656 4.691406-58.507812 0-106.109375-47.601562-106.109375-106.109375s47.601563-106.109375 106.109375-106.109375 106.109375 47.601562 106.109375 106.109375c0 45.707031-29.046875 84.753906-69.648437 99.65625-1.785157.503906-3.53125 1.089844-5.238282 1.761719zm181.820313 108.191406h10.914062c6.640625 0 12.042969 5.402344 12.042969 12.042969v3.914062c0 6.640625-5.402344 12.042969-12.042969 12.042969h-126.46875c-7.167969 0-13-5.832031-13-13 0-18.195312-14.804687-33-33-33-19.566406 0-35.488281-15.921875-35.488281-35.488281v-3.0625c0-14.714844 9.003906-27.367188 21.792969-32.734375 1.613281-.511719 3.214843-1.054688 4.800781-1.625 2.84375-.734375 5.824219-1.128906 8.894531-1.128906h172.46875c6.640625 0 12.042969 5.402343 12.042969 12.042968v3.867188c0 6.640625-5.402344 12.042968-12.042969 12.042968h-10.914062c-17.667969 0-32.042969 14.375-32.042969 32.042969s14.375 32.042969 32.042969 32.042969zm0 0" fill="#ffffff"/><path d="m113 492c-2.628906 0-5.210938 1.070312-7.070312 2.929688-1.859376 1.859374-2.929688 4.441406-2.929688 7.070312s1.070312 5.210938 2.929688 7.070312c1.859374 1.859376 4.441406 2.929688 7.070312 2.929688s5.210938-1.070312 7.070312-2.929688c1.859376-1.859374 2.929688-4.441406 2.929688-7.070312s-1.070312-5.210938-2.929688-7.070312c-1.859374-1.859376-4.441406-2.929688-7.070312-2.929688zm0 0" fill="#ffffff"/><path d="m338.769531 200.390625c0-45.640625-37.128906-82.769531-82.769531-82.769531-5.523438 0-10 4.476562-10 10 0 5.523437 4.476562 10 10 10 34.613281 0 62.769531 28.15625 62.769531 62.769531 0 5.523437 4.476563 10 10 10 5.523438 0 10-4.476563 10-10zm0 0" fill="#ffffff"/><path d="m206.203125 134.269531-.441406.335938c-4.390625 3.355469-5.230469 9.628906-1.878907 14.019531 1.96875 2.574219 4.945313 3.929688 7.957032 3.929688 2.113281 0 4.25-.667969 6.0625-2.054688l.351562-.265625c4.40625-3.328125 5.285156-9.597656 1.957032-14.007813-3.328126-4.40625-9.597657-5.285156-14.007813-1.957031zm0 0" fill="#ffffff"/></g><g transform="matrix(0.078125 0 0 0.078125 155 330)" id="L1_172"><path d="m291.671875 136c2.628906 0 5.207031-1.070312 7.066406-2.929688 1.859375-1.859374 2.933594-4.441406 2.933594-7.070312s-1.070313-5.210938-2.933594-7.070312c-1.859375-1.859376-4.4375-2.929688-7.066406-2.929688-2.640625 0-5.210937 1.070312-7.070313 2.929688-1.871093 1.859374-2.929687 4.441406-2.929687 7.070312s1.058594 5.210938 2.929687 7.070312c1.859376 1.859376 4.429688 2.929688 7.070313 2.929688zm0 0" fill="#ffffff"/><path d="m512 10c0-5.523438-4.476562-10-10-10h-492c-5.523438 0-10 4.476562-10 10v115.113281c0 .152344.015625.296875.0234375.445313-.0078125.144531-.0234375.292968-.0234375.441406v376c0 5.523438 4.476562 10 10 10h492c5.523438 0 10-4.476562 10-10v-376c0-.148438-.015625-.296875-.023438-.441406.007813-.148438.023438-.292969.023438-.445313zm-20 106h-65v-96h65zm0 376h-472v-356h227c5.523438 0 10-4.476562 10-10s-4.476562-10-10-10h-227v-96h99.804688v11.859375l-23.753907 23.75c-3.902343 3.90625-3.902343 10.238281 0 14.140625 1.953125 1.953125 4.511719 2.929688 7.070313 2.929688 2.5625 0 5.121094-.976563 7.074218-2.929688l9.605469-9.609375v20.511719c0 5.523437 4.480469 10 10 10 5.523438 0 10-4.476563 10-10v-6.511719l6.847657 6.84375c1.953124 1.953125 4.511718 2.929687 7.070312 2.929687s5.117188-.976562 7.070312-2.929687c3.90625-3.902344 3.90625-10.234375 0-14.140625l-20.988281-20.984375v-9.851563c0-.003906 0-.007812 0-.011718v-15.996094h267.199219v26.300781l-20.960938 24.449219c-3.59375 4.191406-3.109374 10.507812 1.082032 14.101562 1.886718 1.617188 4.203125 2.40625 6.503906 2.40625 2.820312 0 5.621094-1.183593 7.597656-3.488281l5.777344-6.742187v38.972656h-74c-5.523438 0-10 4.476562-10 10s4.476562 10 10 10h74v24.996094.007812 2.421875l-25.066406 30.566407c-3.5 4.273437-2.878906 10.574218 1.394531 14.074218 1.859375 1.527344 4.101563 2.269532 6.332031 2.269532 2.894532 0 5.765625-1.25 7.738282-3.660157l9.601562-11.710937v18.035156c0 1.605469.386719 3.1875 1.125 4.609375l11.429688 22.003906c1.78125 3.425781 5.269531 5.390625 8.882812 5.390625 1.554688 0 3.128906-.363281 4.601562-1.128906 4.902344-2.546875 6.8125-8.582031 4.265626-13.484375l-10.304688-19.832031v-25.414063l4.304688 4.304688c1.953124 1.953125 4.511718 2.929687 7.070312 2.929687s5.117188-.980468 7.070312-2.929687c3.90625-3.90625 3.90625-10.238281 0-14.144531l-18.445312-18.445313v-20.859375h65zm0 0" fill="#ffffff"/><path d="m359.960938 349.746094-118.082032-118.082032c10.488282-17.390624 8.21875-40.539062-6.664062-55.421874-8.542969-8.542969-19.898438-13.246094-31.976563-13.246094-12.082031 0-23.4375 4.703125-31.976562 13.246094-6.96875 6.96875-11.386719 15.890624-12.773438 25.441406-9.546875 1.386718-18.472656 5.804687-25.441406 12.769531-8.539063 8.542969-13.242187 19.898437-13.242187 31.976563 0 12.078124 4.703124 23.433593 13.242187 31.976562 14.886719 14.882812 38.035156 17.152344 55.425781 6.664062l118.082032 118.082032c-10.492188 17.390625-8.21875 40.539062 6.664062 55.421875 8.542969 8.542969 19.898438 13.246093 31.976562 13.246093 12.078126 0 23.433594-4.703124 31.976563-13.246093 6.96875-6.964844 11.386719-15.890625 12.769531-25.441407 9.550782-1.386718 18.476563-5.804687 25.445313-12.769531 8.539062-8.542969 13.242187-19.894531 13.242187-31.976562 0-12.078125-4.703125-23.433594-13.242187-31.976563-14.886719-14.882812-38.035157-17.152344-55.425781-6.664062zm41.28125 56.476562c-5.292969 5.292969-12.625 7.941406-20.085938 7.28125-2.949219-.265625-5.863281.792969-7.957031 2.886719s-3.152344 5.007813-2.890625 7.957031c.664062 7.476563-1.988282 14.796875-7.28125 20.085938-4.765625 4.765625-11.097656 7.390625-17.832032 7.390625-6.738281 0-13.070312-2.625-17.835937-7.390625-9.625-9.625-9.789063-25.449219-.363281-35.273438 3.765625-3.929687 3.699218-10.144531-.148438-13.996094l-130.386718-130.386718c-1.953126-1.953125-4.511719-2.929688-7.074219-2.929688-2.492188 0-4.984375.925782-6.921875 2.78125-9.824219 9.425782-25.648438 9.261719-35.273438-.363281-4.765625-4.765625-7.390625-11.097656-7.390625-17.835937 0-6.734376 2.625-13.066407 7.390625-17.832032 5.292969-5.292968 12.613282-7.941406 20.085938-7.28125 2.941406.253906 5.859375-.796875 7.957031-2.890625 2.09375-2.09375 3.152344-5.007812 2.886719-7.957031-.664063-7.472656 1.988281-14.792969 7.28125-20.085938 4.765625-4.761718 11.097656-7.386718 17.835937-7.386718 6.734375 0 13.070313 2.625 17.832031 7.386718 9.625 9.628907 9.792969 25.453126.367188 35.277344-3.765625 3.925782-3.703125 10.144532.144531 13.992188l130.390625 130.390625c3.847656 3.847656 10.066406 3.910156 13.996094.144531 9.820312-9.421875 25.648438-9.261719 35.273438.367188 9.832031 9.832031 9.832031 25.832031 0 35.667968zm0 0" fill="#ffffff"/><path d="m191.570312 394.332031c-21.410156 0-38.832031 17.421875-38.832031 38.835938 0 21.410156 17.421875 38.832031 38.832031 38.832031 21.414063 0 38.835938-17.421875 38.835938-38.832031 0-21.414063-17.421875-38.835938-38.835938-38.835938zm0 57.667969c-10.382812 0-18.832031-8.449219-18.832031-18.832031 0-10.386719 8.449219-18.835938 18.832031-18.835938 10.386719 0 18.835938 8.449219 18.835938 18.835938 0 10.382812-8.449219 18.832031-18.835938 18.832031zm0 0" fill="#ffffff"/><path d="m59.261719 357.261719-13.5 13.5c-3.90625 3.90625-3.90625 10.238281 0 14.144531 1.953125 1.949219 4.511719 2.929688 7.070312 2.929688 2.558594 0 5.117188-.980469 7.070313-2.929688l13.5-13.5c3.90625-3.90625 3.90625-10.238281 0-14.144531s-10.234375-3.90625-14.140625 0zm0 0" fill="#ffffff"/><path d="m160.695312 355.363281c3.90625-3.90625 3.90625-10.238281 0-14.144531l-13.292968-13.289062c-3.90625-3.90625-10.234375-3.90625-14.140625 0-3.90625 3.902343-3.90625 10.234374 0 14.140624l13.292969 13.292969c1.953124 1.953125 4.511718 2.929688 7.070312 2.929688s5.117188-.976563 7.070312-2.929688zm0 0" fill="#ffffff"/><path d="m89.929688 185.519531-12.371094 12.371094c-3.90625 3.90625-3.90625 10.238281 0 14.140625 1.953125 1.953125 4.511718 2.929688 7.070312 2.929688s5.117188-.976563 7.070313-2.929688l12.371093-12.371094c3.90625-3.90625 3.90625-10.238281 0-14.140625-3.902343-3.90625-10.234374-3.90625-14.140624 0zm0 0" fill="#ffffff"/><path d="m397.136719 295.945312c1.953125 1.953126 4.511719 2.929688 7.070312 2.929688 2.558594 0 5.117188-.976562 7.070313-2.929688 3.90625-3.90625 3.90625-10.234374 0-14.140624l-14.539063-14.542969c-3.902343-3.902344-10.234375-3.90625-14.144531 0-3.902344 3.902343-3.902344 10.234375 0 14.140625zm0 0" fill="#ffffff"/><path d="m450.601562 437.929688c1.847657 1.859374 4.429688 2.921874 7.070313 2.921874 2.628906 0 5.207031-1.0625 7.066406-2.921874 1.859375-1.871094 2.933594-4.4375 2.933594-7.070313 0-2.640625-1.070313-5.210937-2.933594-7.070313-1.867187-1.867187-4.4375-2.929687-7.066406-2.929687-2.640625 0-5.210937 1.0625-7.070313 2.929687-1.871093 1.859376-2.929687 4.433594-2.929687 7.070313 0 2.628906 1.058594 5.210937 2.929687 7.070313zm0 0" fill="#ffffff"/><path d="m346.328125 195.519531c2.640625 0 5.210937-1.058593 7.070313-2.917969 1.871093-1.871093 2.929687-4.441406 2.929687-7.070312 0-2.640625-1.058594-5.210938-2.929687-7.082031-1.859376-1.859375-4.429688-2.929688-7.070313-2.929688-2.628906 0-5.207031 1.070313-7.066406 2.929688-1.863281 1.859375-2.933594 4.441406-2.933594 7.082031 0 2.628906 1.070313 5.199219 2.933594 7.070312 1.859375 1.859376 4.4375 2.917969 7.066406 2.917969zm0 0" fill="#ffffff"/><path d="m212.070312 361.070312c1.859376-1.859374 2.929688-4.441406 2.929688-7.070312s-1.070312-5.210938-2.929688-7.070312c-1.859374-1.859376-4.441406-2.929688-7.070312-2.929688s-5.210938 1.070312-7.070312 2.929688c-1.859376 1.859374-2.929688 4.441406-2.929688 7.070312s1.070312 5.210938 2.929688 7.070312c1.859374 1.859376 4.441406 2.929688 7.070312 2.929688s5.210938-1.070312 7.070312-2.929688zm0 0" fill="#ffffff"/><path d="m64 291.601562c2.628906 0 5.210938-1.0625 7.070312-2.921874 1.859376-1.871094 2.929688-4.441407 2.929688-7.078126 0-2.632812-1.070312-5.203124-2.929688-7.070312-1.859374-1.859375-4.441406-2.929688-7.070312-2.929688s-5.210938 1.070313-7.070312 2.929688c-1.859376 1.859375-2.929688 4.4375-2.929688 7.070312 0 2.640626 1.070312 5.207032 2.929688 7.078126 1.859374 1.859374 4.441406 2.921874 7.070312 2.921874zm0 0" fill="#ffffff"/><path d="m90.808594 438c-2.628906 0-5.199219 1.070312-7.066406 2.929688-1.859376 1.859374-2.933594 4.441406-2.933594 7.070312s1.070312 5.210938 2.933594 7.070312c1.867187 1.859376 4.4375 2.929688 7.066406 2.929688 2.632812 0 5.210937-1.070312 7.070312-2.929688 1.871094-1.859374 2.929688-4.441406 2.929688-7.070312s-1.058594-5.210938-2.929688-7.070312c-1.859375-1.859376-4.429687-2.929688-7.070312-2.929688zm0 0" fill="#ffffff"/><path d="m233 48.78125c-2.628906 0-5.210938 1.070312-7.070312 2.929688-1.859376 1.859374-2.929688 4.4375-2.929688 7.070312 0 2.628906 1.070312 5.207031 2.929688 7.070312 1.859374 1.859376 4.441406 2.929688 7.070312 2.929688s5.210938-1.070312 7.070312-2.929688c1.859376-1.863281 2.929688-4.441406 2.929688-7.070312 0-2.632812-1.070312-5.210938-2.929688-7.070312-1.859374-1.859376-4.441406-2.929688-7.070312-2.929688zm0 0" fill="#ffffff"/><path d="m462.929688 65.851562c1.859374 1.859376 4.441406 2.929688 7.070312 2.929688s5.210938-1.070312 7.070312-2.929688c1.859376-1.863281 2.929688-4.441406 2.929688-7.070312 0-2.632812-1.070312-5.210938-2.929688-7.070312-1.859374-1.859376-4.441406-2.929688-7.070312-2.929688s-5.210938 1.070312-7.070312 2.929688c-1.859376 1.859374-2.929688 4.4375-2.929688 7.070312 0 2.628906 1.070312 5.207031 2.929688 7.070312zm0 0" fill="#ffffff"/><path d="m59.578125 75c-2.628906 0-5.207031 1.070312-7.066406 2.929688-1.863281 1.859374-2.933594 4.441406-2.933594 7.070312s1.070313 5.210938 2.933594 7.070312c1.859375 1.859376 4.4375 2.929688 7.066406 2.929688 2.632813 0 5.210937-1.070312 7.070313-2.929688 1.871093-1.859374 2.929687-4.441406 2.929687-7.070312s-1.058594-5.210938-2.929687-7.070312c-1.859376-1.859376-4.429688-2.929688-7.070313-2.929688zm0 0" fill="#ffffff"/><path d="m341 95c2.628906 0 5.210938-1.070312 7.070312-2.929688 1.859376-1.859374 2.929688-4.441406 2.929688-7.070312s-1.070312-5.210938-2.929688-7.070312c-1.859374-1.859376-4.441406-2.929688-7.070312-2.929688s-5.210938 1.070312-7.070312 2.929688c-1.859376 1.859374-2.929688 4.441406-2.929688 7.070312s1.070312 5.210938 2.929688 7.070312c1.859374 1.859376 4.441406 2.929688 7.070312 2.929688zm0 0" fill="#ffffff"/></g><g transform="matrix(0.03906257450580597 0 0 0.03906257450580597 252.5 340)" id="L1_173"><path d="m54.238281 361.957031c2.632813 0 5.214844-1.070312 7.078125-2.933593 1.863282-1.863282 2.933594-4.445313 2.933594-7.078126 0-2.636718-1.070312-5.21875-2.933594-7.082031-1.863281-1.859375-4.445312-2.933593-7.078125-2.933593-2.632812 0-5.21875 1.070312-7.082031 2.933593-1.859375 1.863281-2.933594 4.445313-2.933594 7.082031 0 2.632813 1.074219 5.214844 2.933594 7.078126 1.863281 1.863281 4.4375 2.933593 7.082031 2.933593zm0 0" fill="#ffffff"/><path d="m361.945312 412.140625v-131.714844c0-49.070312-39.917968-88.988281-88.988281-88.988281h-17.558593c5.109374-5.222656 9.378906-11.273438 12.5625-17.941406 3.996093 2.324218 8.636718 3.660156 13.585937 3.660156 14.976563 0 27.15625-12.183594 27.15625-27.160156v-32.652344c0-12.609375-8.632813-23.234375-20.300781-26.28125v-22.59375c0-37.753906-30.714844-68.46875-68.46875-68.46875h-33.703125c-37.753907 0-68.46875 30.714844-68.46875 68.46875v22.59375c-11.667969 3.042969-20.304688 13.671875-20.304688 26.28125v32.652344c0 14.976562 12.183594 27.160156 27.160157 27.160156 4.949218 0 9.585937-1.339844 13.585937-3.660156 3.183594 6.667968 7.449219 12.71875 12.5625 17.941406h-17.5625c-49.066406 0-88.984375 39.917969-88.984375 88.984375v32.230469c0 5.527344 4.484375 10.011718 10.015625 10.011718 5.527344 0 10.011719-4.484374 10.011719-10.011718v-32.230469c0-38.023437 30.933594-68.957031 68.957031-68.957031h111.332031l-6.335937 12.214844c-23.558594 45.449218-64.171875 79.570312-112.613281 95.105468v-36.605468c0-5.527344-4.480469-10.011719-10.011719-10.011719s-10.015625 4.484375-10.015625 10.011719v129.613281h-41.3125v-26.003907c0-5.527343-4.484375-10.011718-10.011719-10.011718-5.53125 0-10.015625 4.484375-10.015625 10.011718v26.425782c-24.621094 3.144531-43.71875 24.21875-43.71875 49.679687 0 27.628907 22.476562 50.105469 50.101562 50.105469h305.523438c27.625 0 50.101562-22.476562 50.101562-50.105469.003907-25.65625-19.386718-46.859375-44.28125-49.753906zm-73.265624-262.144531c0 3.933594-3.199219 7.132812-7.132813 7.132812-3.929687 0-7.128906-3.199218-7.128906-7.132812v-32.652344c0-3.933594 3.199219-7.128906 7.128906-7.128906 3.933594 0 7.132813 3.195312 7.132813 7.128906zm-102.449219-129.96875h33.707031c26.707031 0 48.4375 21.730468 48.4375 48.441406v22.71875c-3.523438-9.566406-8.871094-19.390625-16.714844-23.878906-12.25-7.003906-21.8125-3.875-30.25-1.113282-5.300781 1.734376-10.777344 3.527344-18.328125 3.527344-7.546875 0-13.027343-1.792968-18.324219-3.527344-8.4375-2.765624-18.003906-5.894531-30.25 1.113282-7.84375 4.488281-13.191406 14.3125-16.714843 23.878906v-22.71875c0-26.710938 21.726562-48.441406 48.4375-48.441406zm-54.484375 129.96875c0 3.933594-3.195313 7.132812-7.128906 7.132812-3.929688 0-7.128907-3.199218-7.128907-7.132812v-32.652344c0-3.933594 3.199219-7.128906 7.128907-7.128906 3.933593 0 7.128906 3.195312 7.128906 7.128906zm20.03125-5.074219v-27.578125c0-.1875-.011719-.371094-.015625-.554688 2.054687-12.953124 7.75-29.269531 12.691406-32.09375 4.347656-2.488281 6.507813-1.941406 14.074219.535157 6.152344 2.011719 13.8125 4.519531 24.554687 4.519531 10.742188 0 18.402344-2.507812 24.558594-4.519531 7.566406-2.480469 9.722656-3.023438 14.074219-.535157 4.914062 2.808594 10.613281 19.132813 12.691406 32.097657-.003906.183593-.015625.367187-.015625.550781v27.578125c0 25.648437-20.867187 46.515625-46.515625 46.515625h-9.582031c-25.648438 0-46.515625-20.867188-46.515625-46.515625zm104.207031 87.976563 11.113281-21.433594h5.863282c2.636718 0 5.238281.164062 7.800781.457031v140.074219c0 5.527344 4.480469 10.011718 10.011719 10.011718s10.015624-4.484374 10.015624-10.011718v-134.644532c24.195313 10.71875 41.128907 34.949219 41.128907 63.074219v131.367188h-216.328125v-72.074219c56.152344-16.167969 103.40625-54.757812 130.394531-106.820312zm-235.453125 229c0-16.585938 13.492188-30.078126 30.074219-30.078126h71.519531c26.859375 0 51.828125 13.316407 66.792969 35.621094 6.425781 9.578125 14.324219 17.828125 23.292969 24.53125h-161.605469c-16.582031 0-30.074219-13.492187-30.074219-30.074218zm335.59375 30.074218h-63.046875c-.367187-.042968-.738281-.066406-1.121094-.066406h-19.617187c-26.859375 0-51.828125-13.316406-66.792969-35.621094-6.402344-9.546875-14.273437-17.769531-23.207031-24.464844h173.785156c16.585938 0 30.074219 13.492188 30.074219 30.078126 0 16.582031-13.488281 30.074218-30.074219 30.074218zm0 0" fill="#ffffff"/><path d="m290.777344 397.648438c2.636718 0 5.207031-1.070313 7.070312-2.933594 1.875-1.875 2.945313-4.445313 2.945313-7.082032 0-2.632812-1.070313-5.214843-2.945313-7.078124-1.851562-1.863282-4.433594-2.933594-7.070312-2.933594-2.640625 0-5.226563 1.070312-7.089844 2.933594-1.859375 1.863281-2.933594 4.4375-2.933594 7.078124 0 2.636719 1.074219 5.21875 2.933594 7.082032 1.875 1.859375 4.445312 2.933594 7.089844 2.933594zm0 0" fill="#ffffff"/></g><g transform="matrix(0.078125 0 0 0.078125 67.5 67.5)" id="L1_174"><path d="m482 0h-452c-16.542969 0-30 13.457031-30 30v452c0 16.542969 13.457031 30 30 30h452c16.542969 0 30-13.457031 30-30v-452c0-16.542969-13.457031-30-30-30zm-462 482v-452c0-5.515625 4.484375-10 10-10h216v226h-156.667969c-5.523437 0-10 4.476562-10 10s4.476563 10 10 10h156.667969v226h-216c-5.515625 0-10-4.484375-10-10zm472 0c0 5.515625-4.484375 10-10 10h-216v-226h208.578125c5.523437 0 10-4.476562 10-10s-4.476563-10-10-10h-208.578125v-226h216c5.515625 0 10 4.484375 10 10zm0 0" fill="#ffffff"/><path d="m51 266.003906c2.628906 0 5.210938-1.070312 7.070312-2.929687 1.859376-1.871094 2.929688-4.441407 2.929688-7.070313 0-2.632812-1.070312-5.210937-2.929688-7.070312-1.859374-1.871094-4.429687-2.929688-7.070312-2.929688-2.628906 0-5.210938 1.058594-7.070312 2.929688-1.859376 1.859375-2.929688 4.429687-2.929688 7.070312 0 2.628906 1.070312 5.210938 2.929688 7.070313 1.859374 1.859375 4.441406 2.929687 7.070312 2.929687zm0 0" fill="#ffffff"/><path d="m51.777344 140.328125c-.644532 3.75.898437 7.542969 3.976562 9.78125 3.082032 2.238281 7.164063 2.53125 10.53125.761719l20.695313-10.882813 20.699219 10.882813c1.460937.769531 3.058593 1.148437 4.652343 1.148437 2.070313 0 4.136719-.648437 5.878907-1.910156 3.078124-2.238281 4.621093-6.03125 3.976562-9.78125l-3.953125-23.046875 16.746094-16.320312c2.722656-2.65625 3.707031-6.628907 2.53125-10.25-1.175781-3.621094-4.308594-6.257813-8.074219-6.808594l-23.140625-3.359375-10.347656-20.96875c-1.683594-3.414063-5.160157-5.574219-8.964844-5.574219-3.808594 0-7.285156 2.160156-8.96875 5.574219l-10.347656 20.96875-23.140625 3.359375c-3.765625.550781-6.894532 3.1875-8.074219 6.808594-1.175781 3.621093-.191406 7.59375 2.53125 10.25l16.746094 16.320312zm23.96875-40.75c3.257812-.472656 6.074218-2.519531 7.527344-5.46875l3.710937-7.515625 3.707031 7.515625c1.457032 2.949219 4.273438 4.996094 7.527344 5.46875l8.292969 1.203125-6 5.847656c-2.359375 2.300782-3.433594 5.609375-2.875 8.851563l1.414062 8.257812-7.414062-3.898437c-1.457031-.765625-3.058594-1.148438-4.65625-1.148438-1.597657 0-3.195313.382813-4.652344 1.148438l-7.414063 3.898437 1.414063-8.257812c.558594-3.242188-.515625-6.550781-2.875-8.851563l-6-5.847656zm0 0" fill="#ffffff"/><path d="m479.539062 393.972656-23.136718-3.363281-10.347656-20.96875c-1.6875-3.410156-5.164063-5.574219-8.96875-5.574219-3.804688 0-7.28125 2.164063-8.96875 5.574219l-10.347657 20.96875-23.136719 3.363281c-3.769531.546875-6.898437 3.183594-8.074218 6.804688-1.175782 3.621094-.195313 7.59375 2.53125 10.25l16.742187 16.324218-3.953125 23.042969c-.644531 3.753907.898438 7.542969 3.980469 9.78125 1.742187 1.265625 3.804687 1.910157 5.878906 1.910157 1.589844 0 3.1875-.378907 4.652344-1.148438l20.695313-10.878906 20.695312 10.878906c3.367188 1.769531 7.453125 1.476562 10.53125-.761719 3.082031-2.238281 4.621094-6.027343 3.976562-9.78125l-3.949218-23.042969 16.742187-16.324218c2.726563-2.65625 3.707031-6.628906 2.53125-10.25s-4.304687-6.257813-8.074219-6.804688zm-28.925781 22.722656c-2.355469 2.300782-3.433593 5.609376-2.875 8.855469l1.414063 8.253907-7.414063-3.898438c-1.457031-.765625-3.054687-1.144531-4.652343-1.144531-1.597657 0-3.195313.382812-4.652344 1.144531l-7.414063 3.898438 1.414063-8.253907c.558594-3.246093-.519532-6.554687-2.875-8.855469l-6-5.847656 8.292968-1.203125c3.253907-.472656 6.070313-2.519531 7.527344-5.46875l3.707032-7.515625 3.710937 7.515625c1.457031 2.949219 4.269531 4.996094 7.527344 5.46875l8.289062 1.203125zm0 0" fill="#ffffff"/><path d="m219.867188 152.332031h-48.332032c-5.523437 0-10 4.480469-10 10v48.335938c0 5.519531 4.476563 10 10 10h48.332032c5.523437 0 10-4.480469 10-10v-48.335938c0-5.519531-4.476563-10-10-10zm-10 48.335938h-28.332032v-28.335938h28.332032zm0 0" fill="#ffffff"/><path d="m305.667969 122.332031h48.332031c5.523438 0 10-4.476562 10-10v-48.332031c0-5.523438-4.476562-10-10-10h-48.332031c-5.523438 0-10 4.476562-10 10v48.332031c0 5.523438 4.476562 10 10 10zm10-48.332031h28.332031v28.332031h-28.332031zm0 0" fill="#ffffff"/><path d="m201 393.753906h-48.332031c-5.523438 0-10 4.476563-10 10v48.332032c0 5.523437 4.476562 10 10 10h48.332031c5.523438 0 10-4.476563 10-10v-48.332032c0-5.523437-4.476562-10-10-10zm-10 48.332032h-28.332031v-28.332032h28.332031zm0 0" fill="#ffffff"/><path d="m333.25 145.5c-20.722656 0-37.582031 16.859375-37.582031 37.582031 0 20.726563 16.859375 37.585938 37.582031 37.585938s37.582031-16.859375 37.582031-37.585938c0-20.722656-16.859375-37.582031-37.582031-37.582031zm0 55.167969c-9.695312 0-17.582031-7.890625-17.582031-17.585938 0-9.695312 7.886719-17.582031 17.582031-17.582031s17.582031 7.886719 17.582031 17.582031c0 9.695313-7.886719 17.585938-17.582031 17.585938zm0 0" fill="#ffffff"/><path d="m81.5 298.21875c-22.332031 0-40.5 18.167969-40.5 40.5s18.167969 40.5 40.5 40.5 40.5-18.167969 40.5-40.5-18.167969-40.5-40.5-40.5zm0 61c-11.304688 0-20.5-9.195312-20.5-20.5s9.195312-20.5 20.5-20.5 20.5 9.195312 20.5 20.5-9.195312 20.5-20.5 20.5zm0 0" fill="#ffffff"/><path d="m468.667969 92.507812-61.332031-35.410156c-3.097657-1.789062-6.90625-1.789062-10 0-3.097657 1.785156-5 5.085938-5 8.660156v70.820313c0 3.570313 1.902343 6.871094 5 8.660156 1.546874.894531 3.269531 1.339844 5 1.339844 1.722656 0 3.449218-.445313 5-1.339844l61.332031-35.410156c3.09375-1.789063 5-5.089844 5-8.660156 0-3.574219-1.90625-6.875-5-8.660157zm-56.335938 26.75v-36.183593l31.332031 18.09375zm0 0" fill="#ffffff"/><path d="m224.867188 322.167969-61.332032-35.410157c-3.09375-1.785156-6.90625-1.785156-10 0-3.09375 1.785157-5 5.085938-5 8.660157v70.820312c0 3.570313 1.90625 6.875 5 8.660157 1.546875.894531 3.273438 1.339843 5 1.339843 1.726563 0 3.453125-.445312 5-1.339843l61.332032-35.410157c3.09375-1.785156 5-5.089843 5-8.660156s-1.90625-6.875-5-8.660156zm-56.335938 26.75v-36.179688l31.335938 18.089844zm0 0" fill="#ffffff"/><path d="m372 408.015625-61.332031-35.410156c-3.09375-1.789063-6.90625-1.789063-10 0-3.09375 1.785156-5 5.085937-5 8.660156v70.820313c0 3.570312 1.90625 6.875 5 8.660156 1.546875.894531 3.273437 1.339844 5 1.339844 1.726562 0 3.453125-.445313 5-1.339844l61.332031-35.410156c3.09375-1.785157 5-5.089844 5-8.660157 0-3.574219-1.90625-6.875-5-8.660156zm-56.332031 26.75v-36.179687l31.332031 18.089843zm0 0" fill="#ffffff"/><path d="m372 286.757812c-3.09375-1.789062-6.90625-1.789062-10 0l-61.332031 35.410157c-3.09375 1.785156-5 5.089843-5 8.660156s1.90625 6.875 5 8.660156l61.332031 35.410157c1.546875.894531 3.273438 1.339843 5 1.339843s3.453125-.445312 5-1.339843c3.09375-1.785157 5-5.089844 5-8.660157v-70.820312c0-3.574219-1.90625-6.875-5-8.660157zm-15 62.160157-31.332031-18.089844 31.332031-18.089844zm0 0" fill="#ffffff"/><path d="m123.667969 200.667969h-66c-5.523438 0-10 4.476562-10 10 0 5.519531 4.476562 10 10 10h66c5.523437 0 10-4.480469 10-10 0-5.523438-4.480469-10-10-10zm0 0" fill="#ffffff"/><path d="m112 442.085938h-54.332031c-5.523438 0-10 4.476562-10 10 0 5.523437 4.476562 10 10 10h54.332031c5.523438 0 10-4.476563 10-10 0-5.523438-4.476562-10-10-10zm0 0" fill="#ffffff"/><path d="m163.667969 89h56.199219c5.523437 0 10-4.476562 10-10s-4.476563-10-10-10h-56.199219c-5.523438 0-10 4.476562-10 10s4.476562 10 10 10zm0 0" fill="#ffffff"/><path d="m463.667969 200.667969h-61.332031c-5.523438 0-10 4.476562-10 10 0 5.519531 4.476562 10 10 10h61.332031c5.523437 0 10-4.480469 10-10 0-5.523438-4.480469-10-10-10zm0 0" fill="#ffffff"/><path d="m402.332031 318.21875h61.332031c5.523438 0 10-4.476562 10-10 0-5.519531-4.476562-10-10-10h-61.332031c-5.523437 0-10 4.480469-10 10 0 5.523438 4.480469 10 10 10zm0 0" fill="#ffffff"/></g><g transform="matrix(0.1320598836946298 -0.03538533918852404 0.03538533918852404 0.1320598836946298 132.4138565873206 150.17705492883624)" id="L1_175"><path d="m509.925781 495.90625-53.933593-70.164062c-1.679688-2.191407-4.191407-3.585938-6.941407-3.859376-36.589843-3.628906-56.125-11.398437-71.828125-17.644531-13.890625-5.523437-28.25-11.234375-46.78125-11.234375-28.226562 0-49.804687 15.050782-64.441406 32.109375v-.371093c8.152344-18.796876 29.882812-48.457032 63.640625-48.457032 14.523437 0 25.832031 4.5 38.9375 9.710938 10.933594 4.347656 24.542969 9.761718 44.4375 13.941406 5.40625 1.136719 10.707031-2.324219 11.84375-7.730469 1.132813-5.402343-2.328125-10.707031-7.730469-11.839843-18.214844-3.828126-30.402344-8.675782-41.164062-12.957032-13.75-5.46875-27.96875-11.125-46.324219-11.125-35.144531 0-59.878906 23.550782-73.640625 45-13.761719-21.449218-38.496094-45-73.644531-45-18.351563 0-32.574219 5.65625-46.328125 11.128906-15.519532 6.171876-34.835938 13.855469-71.015625 17.441407-5.496094.546875-9.507813 5.441406-8.964844 10.9375.546875 5.496093 5.445313 9.507812 10.941406 8.964843 38.976563-3.867187 60.625-12.476562 76.433594-18.761718 13.097656-5.210938 24.410156-9.710938 38.933594-9.710938 33.761719 0 55.496093 29.664063 63.644531 48.460938v.367187c-14.640625-17.058593-36.214844-32.113281-64.445312-32.113281-18.527344 0-32.890626 5.714844-46.789063 11.242188-15.695313 6.242187-35.226563 14.011718-71.820313 17.640624-2.746093.273438-5.257812 1.667969-6.941406 3.859376l-53.929687 70.164062c-2.324219 3.019531-2.726563 7.097656-1.042969 10.515625 1.683594 3.414063 5.160156 5.578125 8.96875 5.578125h492c3.808594 0 7.285156-2.164062 8.96875-5.578125 1.683594-3.417969 1.28125-7.496094-1.042969-10.515625zm-179.484375-82.90625c14.699219 0 26.140625 4.550781 39.398438 9.824219 15.375 6.117187 36.222656 14.40625 72.910156 18.503906l38.84375 50.535156c-66.832031-1.441406-98.550781-14.058593-119.960938-22.574219-12.425781-4.941406-20.632812-8.207031-31.191406-8.207031-18.480468 0-31.148437 13.871094-36.398437 25.785157-.046875.09375-.09375.1875-.140625.285156l-2.277344 4.847656h-25.625v-29.925781c8.242188-19.023438 30.246094-49.074219 64.441406-49.074219zm-261.191406 28.328125c36.6875-4.097656 57.53125-12.390625 72.917969-18.507813 13.246093-5.269531 24.691406-9.820312 39.386719-9.820312 34.195312 0 56.203124 30.050781 64.445312 49.074219v29.925781h-25.628906l-2.273438-4.847656c-.046875-.097656-.09375-.191406-.140625-.285156-5.253906-11.914063-17.917969-25.785157-36.398437-25.785157-10.558594 0-18.765625 3.265625-31.191406 8.207031-21.410157 8.515626-53.132813 21.132813-119.960938 22.574219zm88.511719 46.542969c11.007812-4.378906 17.070312-6.789063 23.792969-6.789063 8.628906 0 14.046874 6.789063 16.546874 10.917969h-50.921874c3.804687-1.433594 7.304687-2.824219 10.582031-4.128906zm156.136719 4.128906c2.5-4.128906 7.917968-10.917969 16.542968-10.917969 6.726563 0 12.789063 2.410157 23.800782 6.792969 3.273437 1.300781 6.777343 2.691406 10.578124 4.125zm0 0" fill="#ffffff"/><path d="m444.65625 404.722656.363281.035156c.332031.03125.664063.050782.988281.050782 5.085938 0 9.433594-3.859375 9.941407-9.023438.539062-5.496094-3.476563-10.390625-8.972657-10.929687l-.355468-.035157c-5.496094-.546874-10.390625 3.472657-10.933594 8.96875-.542969 5.496094 3.472656 10.390626 8.96875 10.933594zm0 0" fill="#ffffff"/><path d="m222.246094 246.039062c-2.597656.222657-5.023438 1.453126-6.734375 3.449219-1.902344 2.214844-2.738281 5.148438-2.296875 8.03125 4.144531 26.996094 18.511718 45.441407 39.488281 51.765625-.480469 3.78125-.925781 7.566406-1.324219 11.363282l-5.324218 50.777343c-.574219 5.492188 3.410156 10.414063 8.902343 10.988281.355469.039063.707031.054688 1.054688.054688 5.054687 0 9.394531-3.816406 9.933593-8.957031l5.324219-50.777344c.386719-3.691406.820313-7.367187 1.28125-11.035156 46.515625-.574219 74.914063-30.234375 89.128907-92.949219 1.582031-6.976562 3.5-15.101562 5.707031-24.152344.699219-2.867187.097656-5.894531-1.648438-8.277344-.648437-.882812-1.429687-1.644531-2.304687-2.261718l3.933594-2.25c2.363281-1.347656 4.074218-3.605469 4.734374-6.246094 17.472657-69.53125 43.050782-161.964844 43.308594-162.890625.863282-3.109375.171875-6.441406-1.855468-8.949219-2.023438-2.511718-5.148438-3.898437-8.355469-3.7031248-3.386719.1914068-83.722657 5.9960938-149.757813 113.4296878-.820312 1.332031-1.617187 2.652343-2.40625 3.976562-1.214844 2.023438-1.671875 4.414063-1.296875 6.742188l5.007813 30.832031h-16.980469c-4.007813 0-7.625 2.390625-9.199219 6.074219-10.707031 25.089843-16.859375 48.640625-18.289062 70.007812-.191406 2.839844.839844 5.628907 2.832031 7.664063zm131.5-79.480468-26.707032 15.261718c-3.828124 2.1875-5.773437 6.625-4.785156 10.921876.988282 4.296874 4.675782 7.441406 9.074219 7.738281l13.847656.929687c-1.101562 4.640625-2.105469 8.957032-3.003906 12.917969-14.433594 63.6875-41.089844 76.261719-66.691406 77.324219 14.671875-88.472656 51.800781-170.632813 108.609375-240.253906-8.726563 32.1875-20.636719 76.726562-30.34375 115.160156zm-107.296875 8.445312h22.050781c2.929688 0 5.714844-1.289062 7.617188-3.523437 1.898437-2.234375 2.722656-5.1875 2.253906-8.082031l-6.300782-38.808594c.132813-.222656.269532-.441406.40625-.664063 31.527344-51.292969 66.285157-76.820312 89.890626-89.203125 5.589843-2.933594 10.832031-5.28125 15.617187-7.171875-34.410156 39.953125-62.644531 84.613281-83.964844 132.898438-18.199219 41.210937-31.058593 84.367187-38.382812 128.671875-10.890625-4.460938-16.730469-14.007813-19.863281-23.121094h10.226562c4.027344 0 7.660156-2.414062 9.21875-6.125 1.558594-3.707031.742188-7.992188-2.074219-10.871094l-20.546875-20.984375c1.617188-16.25 6.265625-34.039062 13.851563-53.015625zm0 0" fill="#ffffff"/></g><g transform="matrix(0.17578129470348358 0 0 0.17578129470348358 216.49999993408198 217.4999999780273)" id="L1_176"><path d="m364.640625 190.957031c2.125 2.183594 4.949219 3.277344 7.769531 3.277344 2.726563 0 5.457032-1.019531 7.5625-3.074219 4.292969-4.175781 4.382813-11.039062.207032-15.332031l-.464844-.476563c-4.179688-4.292968-11.042969-4.382812-15.332032-.207031-4.292968 4.175781-4.382812 11.039063-.207031 15.332031zm0 0" fill="#ffffff"/><path d="m388.609375 201.589844c-4.902344 3.4375-6.089844 10.199218-2.648437 15.101562 41.457031 59.101563 37.28125 120.589844 28.273437 147.605469-10.28125 30.851563-36.480469 75.777344-80.84375 102.824219 7.800781-13.351563 12.273437-28.875 12.273437-45.421875 0-38.078125-24.792968-64.128907-46.664062-87.109375-16.238281-17.0625-31.578125-33.179688-32.792969-50.605469-.296875-4.304687-3.125-8.023437-7.191406-9.464844-4.066406-1.445312-8.601563-.335937-11.546875 2.816407-62.796875 67.230468-82.351562 95.914062-82.351562 144.363281 0 20.726562 7.027343 39.835937 18.808593 55.09375-47.046875-20.03125-88.351562-62.839844-101.65625-131.832031-14.007812-72.617188 15.101563-111.101563 38.488281-142.023438 3.527344-4.664062 6.902344-9.125 9.960938-13.492188 13.65625 41.480469 35.117188 71.652344 57.851562 79.78125 11.390626 4.074219 22.632813 2.402344 31.65625-4.710937 23.800782-18.757813 18.921876-40.613281 13.757813-63.746094-5.011719-22.457031-11.253906-50.40625 3.160156-89.8125 15.019531-41.066406 36.492188-63.195312 51.863281-74.53125 5.855469-4.320312 11.300782-7.445312 15.890626-9.683593-.886719 27.542968 2.296874 83 35.46875 133.941406 3.265624 5.015625 9.980468 6.4375 15 3.167968 5.019531-3.265624 6.4375-9.984374 3.171874-15-40.867187-62.769531-30.9375-135.71875-30.835937-136.433593.507813-3.453125-.675781-6.9375-3.183594-9.363281-2.507812-2.425782-6.023437-3.503907-9.460937-2.882813-2.644532.476563-65.132813 12.695313-98.28125 103.335937-16.59375 45.375-9.292969 78.09375-3.957032 101.988282 5.253907 23.535156 6.4375 32.171875-6.019531 41.988281-2.125 1.679687-5.289062 3.34375-10.933593 1.324219-16.390626-5.859375-39.503907-37.066406-51.523438-91.726563-1.09375-4.972656-5.5-8.515625-10.589844-8.515625-.015625 0-.03125 0-.046875 0-5.109375.023438-9.511719 3.609375-10.5625 8.609375-1.941406 9.222657-10.164062 20.09375-19.683593 32.683594-11.84375 15.660156-26.585938 35.148437-36.179688 60.714844-11.246094 29.964843-13.3125 62.183593-6.308594 98.492187 9.496094 49.226563 33.5625 90.839844 69.601563 120.347656 33.542969 27.460938 75.835937 42.585938 119.085937 42.585938 109.089844 0 167.707032-88.53125 185.144532-140.847656 10.289062-30.863282 15.316406-100.753906-31.09375-166.914063-3.4375-4.898437-10.199219-6.085937-15.101563-2.648437zm-138.507813 104.855468c7.234376 15.816407 20.367188 29.617188 33.1875 43.09375 20.003907 21.019532 40.691407 42.753907 40.691407 72.160157 0 34.507812-25.597657 63.136719-58.792969 67.90625-3.832031.347656-7.730469.574219-11.714844.664062-36.933594-1.023437-66.671875-31.378906-66.671875-68.570312 0-35.835938 12.238281-59.242188 63.300781-115.253907zm0 0" fill="#ffffff"/><path d="m499.472656 62.332031c-4.234375-4.234375-11.097656-4.234375-15.335937 0l-34.730469 34.730469c-4.234375 4.234375-4.234375 11.097656 0 15.335938 2.117188 2.117187 4.890625 3.175781 7.667969 3.175781 2.773437 0 5.546875-1.058594 7.664062-3.175781l34.730469-34.734376c4.238281-4.234374 4.238281-11.097656.003906-15.332031zm0 0" fill="#ffffff"/><path d="m464.742188 144.363281c-4.234376-4.234375-11.097657-4.234375-15.335938 0-4.234375 4.230469-4.234375 11.097657 0 15.332031l12.472656 12.472657c2.117188 2.117187 4.890625 3.175781 7.667969 3.175781 2.773437 0 5.546875-1.058594 7.664063-3.175781 4.234374-4.234375 4.234374-11.101563 0-15.335938zm0 0" fill="#ffffff"/><path d="m402.109375 112.394531c2.117187 2.117188 4.890625 3.175781 7.664063 3.175781 2.773437 0 5.550781-1.058593 7.667968-3.175781 4.234375-4.234375 4.234375-11.097656 0-15.332031l-12.472656-12.472656c-4.234375-4.234375-11.097656-4.234375-15.335938 0-4.234374 4.234375-4.234374 11.101562 0 15.332031zm0 0" fill="#ffffff"/><path d="m96.085938 114.976562c2.773437 0 5.546874-1.0625 7.667968-3.175781l12.46875-12.472656c4.234375-4.234375 4.234375-11.101563 0-15.332031-4.234375-4.234375-11.097656-4.234375-15.332031 0l-12.472656 12.46875c-4.234375 4.234375-4.234375 11.101562 0 15.335937 2.117187 2.117188 4.890625 3.175781 7.667969 3.175781zm0 0" fill="#ffffff"/><path d="m56.453125 143.765625c-4.234375-4.234375-11.097656-4.234375-15.335937 0l-12.46875 12.472656c-4.234376 4.234375-4.234376 11.097657 0 15.332031 2.117187 2.117188 4.890624 3.175782 7.664062 3.175782 2.777344 0 5.550781-1.058594 7.667969-3.175782l12.472656-12.472656c4.234375-4.234375 4.234375-11.097656 0-15.332031zm0 0" fill="#ffffff"/><path d="m40.660156 106.851562c2.777344 0 5.550782-1.0625 7.667969-3.175781 4.234375-4.234375 4.234375-11.101562 0-15.335937l-29.320313-29.316406c-4.234374-4.234376-11.097656-4.234376-15.332031 0-4.234375 4.234374-4.234375 11.097656 0 15.332031l29.316407 29.320312c2.117187 2.117188 4.894531 3.175781 7.667968 3.175781zm0 0" fill="#ffffff"/><path d="m255.390625 465.796875c24.3125 0 44.089844-19.78125 44.089844-44.097656 0-5.988281-4.855469-10.84375-10.84375-10.84375s-10.84375 4.855469-10.84375 10.84375c0 12.359375-10.046875 22.414062-22.402344 22.414062-5.984375 0-10.839844 4.855469-10.839844 10.84375s4.855469 10.839844 10.839844 10.839844zm0 0" fill="#ffffff"/><path d="m70.742188 136.929688c-.003907 0-.007813 0-.015626 0h-.425781c-5.988281-.007813-10.835937-4.867188-10.828125-10.855469.007813-5.984375 4.859375-10.828125 10.84375-10.828125h.011719.429687c5.984376.007812 10.832032 4.867187 10.828126 10.855468-.007813 5.984376-4.863282 10.828126-10.84375 10.828126zm0 0" fill="#ffffff"/></g><g transform="matrix(0.078125 0 0 0.078125 242.5 67.5)" id="L1_177"><path d="m256 138c2.628906 0 5.210938-1.070312 7.070312-2.929688 1.859376-1.859374 2.929688-4.441406 2.929688-7.070312s-1.070312-5.210938-2.929688-7.070312c-1.859374-1.859376-4.441406-2.929688-7.070312-2.929688s-5.210938 1.070312-7.070312 2.929688c-1.859376 1.859374-2.929688 4.441406-2.929688 7.070312s1.070312 5.210938 2.929688 7.070312c1.859374 1.859376 4.441406 2.929688 7.070312 2.929688zm0 0" fill="#ffffff"/><path d="m502 452h-12v-30c0-5.523438-4.476562-10-10-10h-6v-15.832031c0-10.828125-6.605469-20.136719-16-24.113281v-33.722657c0-5.523437-4.476562-10-10-10s-10 4.476563-10 10v31.667969h-20v-142h20v32.355469c0 5.523437 4.476562 10 10 10s10-4.476563 10-10v-34.410157c9.394531-3.976562 16-13.289062 16-24.113281v-15.832031h6c5.523438 0 10-4.476562 10-10v-38h1c4.636719 0 8.660156-3.183594 9.730469-7.695312 1.070312-4.507813-1.101563-9.164063-5.242188-11.242188l-235-118c-2.824219-1.417969-6.152343-1.417969-8.976562 0l-235 118c-4.140625 2.082031-6.3125 6.734375-5.242188 11.242188 1.070313 4.511718 5.09375 7.695312 9.730469 7.695312h1v38c0 5.523438 4.476562 10 10 10h6v15.832031c0 10.824219 6.605469 20.136719 16 24.109375v146.113282c-9.394531 3.976562-16 13.285156-16 24.109374v15.835938h-6c-5.523438 0-10 4.476562-10 10v30h-12c-5.523438 0-10 4.476562-10 10v40c0 5.523438 4.476562 10 10 10h492c5.523438 0 10-4.476562 10-10v-40c0-5.523438-4.476562-10-10-10zm-54.167969-62c3.402344 0 6.167969 2.765625 6.167969 6.167969v15.832031h-52v-15.832031c0-3.402344 2.765625-6.167969 6.167969-6.167969zm-88.5 22v-15.832031c0-10.824219-6.605469-20.136719-16-24.113281v-146.109376c9.394531-3.976562 16-13.289062 16-24.113281v-15.832031h22.667969v15.832031c0 10.824219 6.605469 20.136719 16 24.109375v146.113282c-9.394531 3.976562-16 13.285156-16 24.109374v15.835938zm-114.664062 0v-15.832031c0-10.828125-6.609375-20.136719-16-24.113281v-146.109376c9.390625-3.976562 16-13.289062 16-24.113281v-15.832031h22.667969v15.832031c0 10.824219 6.605468 20.136719 16 24.109375v146.113282c-9.394532 3.976562-16 13.285156-16 24.109374v15.835938zm-114.667969 0v-15.832031c0-10.828125-6.605469-20.136719-16-24.113281v-146.109376c9.394531-3.976562 16-13.289062 16-24.113281v-15.832031h22.667969v15.832031c0 10.824219 6.605469 20.136719 16 24.109375v146.113282c-9.394531 3.976562-16 13.285156-16 24.109374v15.835938zm-56-184h20v142h-20zm114.667969 0h20v142h-20zm36-26.167969c0 3.402344-2.765625 6.167969-6.167969 6.167969h-39.667969c-3.398437 0-6.167969-2.765625-6.167969-6.167969v-15.832031h52v15.832031zm-52 194.335938c0-3.402344 2.765625-6.167969 6.167969-6.167969h39.664062c3.398438 0 6.167969 2.765625 6.167969 6.167969v15.832031h-52zm130.664062-168.167969h20v142h-20zm36-26.167969c0 3.402344-2.765625 6.167969-6.167969 6.167969h-39.664062c-3.398438 0-6.167969-2.765625-6.167969-6.167969v-15.832031h52zm-52 194.335938c0-3.402344 2.765625-6.167969 6.167969-6.167969h39.667969c3.398437 0 6.167969 2.765625 6.167969 6.167969v15.832031h-52v-15.832031zm166.667969-194.335938c0 3.402344-2.765625 6.167969-6.167969 6.167969h-39.667969c-3.398437 0-6.164062-2.765625-6.164062-6.167969v-15.832031h52zm-247.667969-63.832031c5.523438 0 10-4.476562 10-10s-4.476562-10-10-10h-143.132812l192.800781-96.808594 192.800781 96.808594h-139.800781c-5.523438 0-10 4.476562-10 10s4.476562 10 10 10h161v28h-428v-28zm-96.332031 48v15.832031c0 3.402344-2.765625 6.167969-6.167969 6.167969h-39.664062c-3.402344 0-6.167969-2.765625-6.167969-6.167969v-15.832031zm-52 210.167969c0-3.402344 2.765625-6.167969 6.167969-6.167969h39.667969c3.398437 0 6.164062 2.765625 6.164062 6.167969v15.832031h-52zm-16 35.832031h428v20h-428zm450 60h-472v-20h472zm0 0" fill="#ffffff"/><path d="m448 289c-2.628906 0-5.210938 1.070312-7.070312 2.929688-1.859376 1.859374-2.929688 4.441406-2.929688 7.070312s1.070312 5.210938 2.929688 7.070312c1.859374 1.859376 4.441406 2.929688 7.070312 2.929688s5.210938-1.070312 7.070312-2.929688c1.859376-1.859374 2.929688-4.441406 2.929688-7.070312s-1.070312-5.210938-2.929688-7.070312c-1.859374-1.859376-4.441406-2.929688-7.070312-2.929688zm0 0" fill="#ffffff"/></g><g transform="matrix(0.09765625 0 0 0.09765625 83.5 249.5)" id="L1_178"><path d="m458 381.113281v-217.445312c0-3.199219-1.53125-6.207031-4.117188-8.089844l-24.6875-17.949219 19.4375-12.148437c2.789063-1.742188 4.542969-4.746094 4.691407-8.03125.144531-3.285157-1.332031-6.433594-3.953125-8.417969l-18.039063-13.667969v-6.363281h16.667969c5.523438 0 10-4.476562 10-10v-20c0-32.53125-26.46875-59-59-59h-341c-.101562 0-.195312.0117188-.292969.015625-.230469-.0039062-.453125-.015625-.683593-.015625-15.746094 0-30.375 7.777344-41.191407 21.902344-10.210937 13.332031-15.832031 30.910156-15.832031 49.496094 0 33.414062 21.871094 60.601562 48.753906 60.601562h55.324219v158.5c0 3.390625 1.714844 6.546875 4.558594 8.390625l19.605469 12.710937-20.828126 18.609376c-2.121093 1.894531-3.335937 4.609374-3.335937 7.457031v86.664062c0 .539063.054687 1.066407.136719 1.582031-.082032.519532-.136719 1.046876-.136719 1.585938 0 25.441406 6.570313 46.855469 18.996094 61.925781 12.003906 14.554688 29.074219 22.574219 48.0625 22.574219h274.863281c36.394531 0 66-29.605469 66-66 0-32.292969-23.320312-59.226562-54-64.886719zm-375.925781-269.113281c2.945312-5.550781 4.613281-11.957031 4.613281-18.839844 0-23.054687-14.933594-39.160156-36.320312-39.160156-5.523438 0-10 4.476562-10 10s4.476562 10 10 10c10.21875 0 16.320312 7.164062 16.320312 19.160156 0 12.238282-9.242188 18.839844-17.933594 18.839844-15.585937 0-28.753906-18.59375-28.753906-40.601562 0-28.339844 16.609375-51.398438 37.023438-51.398438 14.140624 0 25.195312 4.394531 32.847656 13.058594 9.429687 10.667968 14.207031 27.976562 14.207031 51.441406v27.5zm56.429687 364.699219c-9.4375-11.445313-14.425781-28.457031-14.425781-49.199219 0-.539062-.054687-1.066406-.136719-1.585938.082032-.515624.136719-1.042968.136719-1.582031v-82.191406l27.25-24.351563c2.324219-2.074218 3.550781-5.117187 3.308594-8.226562-.238281-3.105469-1.914063-5.925781-4.527344-7.621094l-26.03125-16.875v-200.566406c0-28.371094-6.417969-50.066406-19.0625-64.5h293.984375c21.503906 0 39 17.496094 39 39v10h-16.667969c-5.519531 0-10 4.476562-10 10v21.332031c0 3.132813 1.46875 6.082031 3.964844 7.972657l10.433594 7.90625-19.695313 12.308593c-2.820312 1.761719-4.578125 4.808594-4.695312 8.128907-.117188 3.320312 1.425781 6.484374 4.113281 8.4375l32.546875 23.671874v211.242188h-254.234375c-.492187 0-.976563.046875-1.453125.117188-.960938-.070313-1.929688-.117188-2.910156-.117188-21.269532 0-37.933594 17.0625-37.933594 38.839844 0 23.058594 14.933594 39.160156 36.320312 39.160156 5.523438 0 10-4.476562 10-10s-4.476562-10-10-10c-10.21875 0-16.320312-7.164062-16.320312-19.160156 0-12.238282 9.242188-18.839844 17.933594-18.839844 15.585937 0 28.753906 18.59375 28.753906 40.601562 0 28.339844-16.605469 51.398438-37.019531 51.398438-13.09375 0-24.378907-5.289062-32.632813-15.300781zm307.496094 15.300781h-235.207031c.515625-.625 1.03125-1.25 1.53125-1.902344 9.585937-12.515625 15.125-28.777344 15.769531-46.097656h155.90625c5.523438 0 10-4.476562 10-10s-4.476562-10-10-10h-157.71875c-2.070312-9.03125-5.78125-17.214844-10.71875-24h230.4375c25.363281 0 46 20.636719 46 46s-20.636719 46-46 46zm0 0" fill="#ffffff"/><path d="m189.359375 98c2.628906 0 5.199219-1.070312 7.070313-2.929688 1.859374-1.859374 2.929687-4.441406 2.929687-7.070312s-1.070313-5.210938-2.929687-7.070312c-1.871094-1.859376-4.441407-2.929688-7.070313-2.929688-2.640625 0-5.210937 1.070312-7.070313 2.929688-1.859374 1.859374-2.929687 4.441406-2.929687 7.070312s1.070313 5.210938 2.929687 7.070312c1.859376 1.859376 4.429688 2.929688 7.070313 2.929688zm0 0" fill="#ffffff"/><path d="m232 98h144.355469c5.523437 0 10-4.476562 10-10s-4.476563-10-10-10h-144.355469c-5.523438 0-10 4.476562-10 10s4.476562 10 10 10zm0 0" fill="#ffffff"/><path d="m189.355469 154h187c5.523437 0 10-4.476562 10-10s-4.476563-10-10-10h-187c-5.519531 0-10 4.476562-10 10s4.480469 10 10 10zm0 0" fill="#ffffff"/><path d="m189.355469 210h187c5.523437 0 10-4.476562 10-10s-4.476563-10-10-10h-187c-5.519531 0-10 4.476562-10 10s4.480469 10 10 10zm0 0" fill="#ffffff"/><path d="m189.355469 266h187c5.523437 0 10-4.476562 10-10s-4.476563-10-10-10h-187c-5.519531 0-10 4.476562-10 10s4.480469 10 10 10zm0 0" fill="#ffffff"/><path d="m189.355469 322h187c5.523437 0 10-4.476562 10-10s-4.476563-10-10-10h-187c-5.519531 0-10 4.476562-10 10s4.480469 10 10 10zm0 0" fill="#ffffff"/><path d="m422.871094 424c-2.632813 0-5.210938 1.070312-7.070313 2.929688-1.859375 1.859374-2.929687 4.441406-2.929687 7.070312s1.066406 5.210938 2.929687 7.070312c1.859375 1.859376 4.4375 2.929688 7.070313 2.929688 2.628906 0 5.207031-1.070312 7.066406-2.929688 1.863281-1.859374 2.933594-4.441406 2.933594-7.070312s-1.070313-5.210938-2.933594-7.070312c-1.859375-1.859376-4.4375-2.929688-7.066406-2.929688zm0 0" fill="#ffffff"/></g><g transform="matrix(0.13671916723251343 0 0 0.13671916723251343 315 140)" id="L1_179"><path d="m229.632812 455.128906c-7.914062-2.121094-15.617187-4.683594-23.097656-7.632812 9.296875-6.9375 16.21875-16.914063 19.246094-28.550782 5.128906-19.707031-1.800781-40.710937-17.660156-53.515624-2.238282-1.804688-5.140625-2.5625-7.972656-2.074219-20.089844 3.445312-36.382813 18.410156-41.511719 38.117187-1.59375 6.132813-2.023438 12.390625-1.375 18.492188-8.367188-6.269532-16.226563-13.128906-23.535157-20.507813 10.726563-2.304687 20.679688-7.980469 28.175782-16.539062 13.417968-15.320313 16.632812-37.203125 8.195312-55.757813-1.1875-2.617187-3.449218-4.59375-6.199218-5.429687-19.5-5.917969-40.773438.15625-54.1875 15.472656-4.507813 5.144531-7.855469 11.03125-10.007813 17.28125-4.402344-7.785156-8.320313-15.859375-11.71875-24.183594.472656.015625.949219.035157 1.421875.035157 13.558594 0 26.878906-5.296876 36.785156-15.199219 14.398438-14.398438 19.050782-36.023438 11.859375-55.09375-1.015625-2.6875-3.136719-4.8125-5.828125-5.828125-19.066406-7.191406-40.695312-2.539063-55.09375 11.863281-1.378906 1.375-2.664062 2.820313-3.859375 4.320313-.480469-5.078126-.777343-10.195313-.886719-15.351563 15.148438-9.382813 24.632813-26.066406 24.632813-44.167969 0-20.363281-12-38.945312-30.570313-47.339844-2.621093-1.1875-5.621093-1.1875-8.242187 0-18.570313 8.394532-30.570313 26.976563-30.570313 47.339844 0 18.144532 9.53125 34.871094 24.746094 44.238282.046875 2.285156.128906 4.558593.238282 6.828124-13.121094-7.222656-29.019532-8.570312-43.453126-3.125-2.6875 1.015626-4.8125 3.136719-5.828124 5.824219-7.191407 19.070313-2.539063 40.695313 11.859374 55.09375 9.90625 9.90625 23.222657 15.199219 36.78125 15.199219 5.164063 0 10.359376-.78125 15.417969-2.351562 1.65625 4.355468 3.441407 8.652343 5.351563 12.890624-16.265625-2.433593-33.050782 2.980469-44.84375 15.011719-2.011719 2.050781-3.042969 4.871094-2.832032 7.738281 1.503907 20.324219 14.832032 37.980469 33.953126 44.976563 5.796874 2.121094 11.816406 3.152344 17.789062 3.152344 12.21875 0 24.238281-4.316407 33.742188-12.402344 6.511718 7.359375 13.488281 14.320313 20.90625 20.824219-16.625 4.648437-30.132813 17.398437-35.519532 34.171875-.878906 2.738281-.539062 5.71875.9375 8.1875 9.4375 15.796875 26.515625 25.328125 44.632813 25.328125 1.949219 0 3.914062-.109375 5.878906-.335938 18.3125-2.09375 34.054687-13.792968 41.5-30.382812 11.355469 5.125 23.230469 9.398437 35.566406 12.703125.867188.230469 1.738281.34375 2.597657.34375 4.414062 0 8.453124-2.949219 9.652343-7.414063 1.425781-5.335937-1.738281-10.820312-7.074219-12.25zm-51.640624-48.621094c2.757812-10.589843 10.761718-18.953124 20.988281-22.308593 7.289062 7.914062 10.203125 19.117187 7.445312 29.710937-2.757812 10.589844-10.761719 18.953125-20.984375 22.308594-7.292968-7.914062-10.203125-19.117188-7.449218-29.710938zm-32.878907 65.75c-10.871093 1.242188-21.558593-3.210937-28.371093-11.542968 4.757812-9.652344 14.160156-16.402344 25.035156-17.648438 10.871094-1.242187 21.558594 3.210938 28.371094 11.539063-4.757813 9.65625-14.160157 16.40625-25.035157 17.652343zm-20.359375-121.875c7.214844-8.234374 18.117188-12.125 28.761719-10.539062 2.96875 10.34375.550781 21.664062-6.660156 29.894531-7.210938 8.234375-18.113281 12.121094-28.757813 10.539063-2.972656-10.34375-.550781-21.660156 6.65625-29.894532zm-33.480468-70.164062c7.738281-7.738281 18.875-10.902344 29.390624-8.617188 2.28125 10.519532-.878906 21.65625-8.617187 29.394532-7.738281 7.738281-18.875 10.898437-29.390625 8.617187-2.285156-10.519531.878906-21.652343 8.617188-29.394531zm-28.949219-96.214844c9.050781 5.824219 14.6875 15.933594 14.6875 26.878906 0 10.941407-5.636719 21.050782-14.6875 26.875-9.050781-5.824218-14.691407-15.933593-14.691407-26.875 0-10.945312 5.640626-21.054687 14.691407-26.878906zm-3.59375 130.210938c-10.515625 2.285156-21.652344-.875-29.390625-8.617188-7.742188-7.738281-10.902344-18.875-8.621094-29.390625 10.523438-2.28125 21.65625.878907 29.394531 8.617188 2.664063 2.664062 4.769531 5.738281 6.316407 9.042969.871093 4.566406 1.875 9.089843 3.011718 13.566406 0 2.261718-.222656 4.539062-.710937 6.78125zm7.167969 80.207031c-10.277344-3.761719-17.835938-12.53125-20.191407-23.03125 8.578125-6.496094 20.007813-8.320313 30.289063-4.558594 5.585937 2.046875 10.359375 5.578125 13.941406 10.054688.984375 1.511719 1.988281 3.007812 3.007812 4.496093 1.460938 2.636719 2.570313 5.484376 3.242188 8.480469-8.578125 6.5-20.011719 8.320313-30.289062 4.558594zm0 0" fill="#ffffff"/><path d="m460.019531 335c13.558594 0 26.878907-5.296875 36.78125-15.199219 14.398438-14.398437 19.054688-36.023437 11.859375-55.089843-1.015625-2.691407-3.136718-4.8125-5.828125-5.828126-14.433593-5.449218-30.332031-4.097656-43.453125 3.125.113282-2.269531.195313-4.546874.238282-6.828124 15.214843-9.371094 24.746093-26.09375 24.746093-44.238282 0-20.363281-12-38.945312-30.570312-47.34375-2.617188-1.183594-5.621094-1.183594-8.238281 0-18.570313 8.398438-30.570313 26.980469-30.570313 47.34375 0 18.101563 9.484375 34.785156 24.628906 44.167969-.109375 5.15625-.40625 10.273437-.886719 15.347656-1.195312-1.5-2.480468-2.941406-3.859374-4.320312-14.398438-14.398438-36.019532-19.050781-55.089844-11.859375-2.691406 1.015625-4.8125 3.136718-5.828125 5.828125-7.195313 19.070312-2.539063 40.695312 11.859375 55.09375 9.902344 9.902343 23.222656 15.195312 36.78125 15.195312.476562 0 .949218-.019531 1.425781-.03125-3.398437 8.324219-7.320313 16.398438-11.722656 24.183594-2.148438-6.25-5.5-12.136719-10.003907-17.285156-13.417968-15.316407-34.6875-21.390625-54.191406-15.46875-2.75.835937-5.007812 2.8125-6.199218 5.429687-8.4375 18.550782-5.21875 40.4375 8.199218 55.753906 7.496094 8.5625 17.449219 14.234376 28.175782 16.539063-7.308594 7.378906-15.171876 14.238281-23.535157 20.507813.644531-6.097657.21875-12.359376-1.378906-18.492188-5.125-19.707031-21.421875-34.671875-41.507813-38.117188-2.832031-.484374-5.738281.269532-7.972656 2.074219-15.859375 12.804688-22.792968 33.8125-17.664062 53.515625 3.03125 11.636719 9.953125 21.617188 19.25 28.550782-7.480469 2.953124-15.183594 5.511718-23.097656 7.632812-5.335938 1.429688-8.5 6.914062-7.074219 12.25 1.199219 4.46875 5.238281 7.414062 9.65625 7.414062.855469 0 1.726562-.109374 2.59375-.34375 12.339843-3.304687 24.214843-7.574218 35.566406-12.703124 7.445313 16.589843 23.1875 28.289062 41.5 30.382812 1.96875.226562 3.929687.335938 5.878906.335938 18.117188 0 35.195313-9.53125 44.632813-25.328126 1.476562-2.464843 1.816406-5.449218.9375-8.1875-5.386719-16.769531-18.890625-29.523437-35.519532-34.171874 7.417969-6.503907 14.398438-13.464844 20.90625-20.824219 9.507813 8.085937 21.523438 12.402343 33.742188 12.402343 5.972656 0 11.996094-1.027343 17.789062-3.148437 19.121094-7 32.449219-24.652344 33.953126-44.980469.210937-2.863281-.820313-5.683594-2.832032-7.738281-11.792968-12.027344-28.574218-17.441406-44.839844-15.011719 1.910157-4.234375 3.695313-8.53125 5.351563-12.890625 5.050781 1.574219 10.246094 2.355469 15.410156 2.355469zm-147 49.257812c10.222657 3.355469 18.226563 11.71875 20.984375 22.3125 2.753906 10.589844-.15625 21.792969-7.449218 29.707032-10.222657-3.351563-18.226563-11.714844-20.984376-22.308594-2.757812-10.589844.15625-21.796875 7.449219-29.710938zm82.234375 76.519532c-6.8125 8.332031-17.496094 12.785156-28.371094 11.539062-10.875-1.242187-20.277343-7.996094-25.035156-17.648437 6.8125-8.332031 17.5-12.78125 28.375-11.539063 10.871094 1.242188 20.277344 7.996094 25.03125 17.648438zm66.628906-175.890625c7.742188-7.742188 18.875-10.902344 29.394532-8.617188 2.28125 10.515625-.878906 21.652344-8.621094 29.390625-7.738281 7.738282-18.875 10.898438-29.390625 8.617188-.488281-2.246094-.710937-4.519532-.710937-6.785156 1.136718-4.476563 2.140624-8.996094 3.011718-13.5625 1.542969-3.308594 3.652344-6.378907 6.316406-9.042969zm-12.207031-100.820313c9.046875 5.820313 14.6875 15.929688 14.6875 26.875 0 10.945313-5.640625 21.054688-14.6875 26.875-9.050781-5.820312-14.691406-15.929687-14.691406-26.875 0-10.945312 5.640625-21.054687 14.691406-26.875zm-49.726562 116.988282c-7.738281-7.738282-10.898438-18.875-8.617188-29.394532 10.519531-2.277344 21.652344.878906 29.390625 8.621094 7.738282 7.738281 10.898438 18.875 8.617188 29.390625-10.515625 2.28125-21.652344-.878906-29.390625-8.617187zm-34.808594 68.746093c-7.210937-8.234375-9.628906-19.554687-6.660156-29.898437 10.644531-1.582032 21.550781 2.308594 28.757812 10.539062 7.214844 8.234375 9.632813 19.554688 6.660157 29.898438-10.644532 1.582031-21.546876-2.308594-28.757813-10.539063zm70.863281-2.90625c10.277344-3.761719 21.707032-1.941406 30.285156 4.558594-2.355468 10.5-9.910156 19.269531-20.191406 23.03125-10.277344 3.757813-21.707031 1.9375-30.289062-4.558594.675781-2.996093 1.785156-5.84375 3.246094-8.484375 1.019531-1.484375 2.019531-2.980468 3.003906-4.492187 3.582031-4.476563 8.355468-8.011719 13.945312-10.054688zm0 0" fill="#ffffff"/><path d="m99.980469 106.9375c5.523437 0 10.003906-4.476562 10.003906-10v-12.433594c0-5.523437-4.480469-10-10.003906-10-5.519531 0-10 4.476563-10 10v12.433594c0 5.519531 4.480469 10 10 10zm0 0" fill="#ffffff"/><path d="m99.980469 166.507812c5.523437 0 10.003906-4.476562 10.003906-10v-12.429687c0-5.523437-4.480469-10-10.003906-10-5.519531 0-10 4.476563-10 10v12.429687c0 5.523438 4.480469 10 10 10zm0 0" fill="#ffffff"/><path d="m123.554688 130.507812h12.429687c5.523437 0 10-4.476562 10-10 0-5.523437-4.476563-10-10-10h-12.429687c-5.523438 0-10 4.476563-10 10 0 5.523438 4.476562 10 10 10zm0 0" fill="#ffffff"/><path d="m63.980469 130.507812h12.429687c5.523438 0 10-4.476562 10-10 0-5.523437-4.476562-10-10-10h-12.429687c-5.523438 0-10 4.476563-10 10 0 5.523438 4.476562 10 10 10zm0 0" fill="#ffffff"/><path d="m412 52.933594c5.523438 0 10-4.476563 10-10v-12.429688c0-5.523437-4.476562-10.003906-10-10.003906s-10 4.480469-10 10.003906v12.429688c0 5.523437 4.476562 10 10 10zm0 0" fill="#ffffff"/><path d="m412 112.507812c5.523438 0 10-4.480468 10-10.003906v-12.429687c0-5.523438-4.476562-10-10-10s-10 4.476562-10 10v12.429687c0 5.523438 4.476562 10.003906 10 10.003906zm0 0" fill="#ffffff"/><path d="m435.570312 76.503906h12.433594c5.523438 0 10-4.476562 10-10 0-5.523437-4.476562-10-10-10h-12.433594c-5.523437 0-10 4.476563-10 10 0 5.523438 4.476563 10 10 10zm0 0" fill="#ffffff"/><path d="m376 76.503906h12.429688c5.523437 0 10-4.476562 10-10 0-5.523437-4.476563-10-10-10h-12.429688c-5.523438 0-10.003906 4.476563-10.003906 10 0 5.523438 4.480468 10 10.003906 10zm0 0" fill="#ffffff"/><path d="m316.996094 198.226562v-82.90625c0-44.285156-19.984375-85.359374-54.832032-112.691406-3.625-2.839844-8.722656-2.839844-12.34375 0-34.847656 27.332032-54.832031 68.40625-54.832031 112.691406v82.90625c0 38 19.433594 73.894532 51 94.769532v55.523437c0 5.523438 4.480469 10.003907 10.003907 10.003907 5.523437 0 10-4.480469 10-10.003907v-55.523437c31.566406-20.875 51.003906-56.769532 51.003906-94.769532zm-51.003906 69.527344v-79.101562l31-31v40.574218c0 26.605469-11.566407 51.957032-31 69.527344zm-51.003907-152.433594c0-.90625.015625-1.808593.035157-2.710937l29.769531 29.765625c.375.378906.78125.707031 1.199219 1.011719v65.691406l-31.003907-31zm82.003907 0v14.042969l-31 31.003907v-126.804688c19.898437 22.339844 31 51.15625 31 81.757812zm-51-81.757812v81.726562l-27.847657-27.847656c4.601563-20.011718 14.132813-38.484375 27.847657-53.878906zm-30.605469 173.199219 29.40625 29.402343c.375.378907.78125.707032 1.199219 1.011719v30.578125c-17.34375-15.679687-28.421876-37.554687-30.605469-60.992187zm0 0" fill="#ffffff"/></g></defs><g fi:class="KUsePattern" opacity="0.3"><pattern id="pattern_L1_170" width="350" height="350" patternUnits="userSpaceOnUse"><use xlink:href="#L1_170" x="-350" y="-350"/><use xlink:href="#L1_170" x="0" y="-350"/><use xlink:href="#L1_170" x="350" y="-350"/><use xlink:href="#L1_170" x="-350" y="0"/><use xlink:href="#L1_170" x="0" y="0"/><use xlink:href="#L1_170" x="350" y="0"/><use xlink:href="#L1_170" x="-350" y="350"/><use xlink:href="#L1_170" x="0" y="350"/><use xlink:href="#L1_170" x="350" y="350"/></pattern><rect x="0" y="0" width="100%" height="100%" fill="url(#pattern_L1_170)"/></g><g fi:class="KUsePattern" opacity="0.26"><pattern id="pattern_L1_172" width="350" height="350" patternUnits="userSpaceOnUse"><use xlink:href="#L1_172" x="-350" y="-350"/><use xlink:href="#L1_172" x="0" y="-350"/><use xlink:href="#L1_172" x="350" y="-350"/><use xlink:href="#L1_172" x="-350" y="0"/><use xlink:href="#L1_172" x="0" y="0"/><use xlink:href="#L1_172" x="350" y="0"/><use xlink:href="#L1_172" x="-350" y="350"/><use xlink:href="#L1_172" x="0" y="350"/><use xlink:href="#L1_172" x="350" y="350"/></pattern><rect x="0" y="0" width="100%" height="100%" fill="url(#pattern_L1_172)"/></g><g fi:class="KUsePattern" opacity="0.3"><pattern id="pattern_L1_173" width="350" height="350" patternUnits="userSpaceOnUse"><use xlink:href="#L1_173" x="-350" y="-350"/><use xlink:href="#L1_173" x="0" y="-350"/><use xlink:href="#L1_173" x="350" y="-350"/><use xlink:href="#L1_173" x="-350" y="0"/><use xlink:href="#L1_173" x="0" y="0"/><use xlink:href="#L1_173" x="350" y="0"/><use xlink:href="#L1_173" x="-350" y="350"/><use xlink:href="#L1_173" x="0" y="350"/><use xlink:href="#L1_173" x="350" y="350"/></pattern><rect x="0" y="0" width="100%" height="100%" fill="url(#pattern_L1_173)"/></g><g fi:class="KUsePattern" opacity="0.29"><pattern id="pattern_L1_174" width="350" height="350" patternUnits="userSpaceOnUse"><use xlink:href="#L1_174" x="-350" y="-350"/><use xlink:href="#L1_174" x="0" y="-350"/><use xlink:href="#L1_174" x="350" y="-350"/><use xlink:href="#L1_174" x="-350" y="0"/><use xlink:href="#L1_174" x="0" y="0"/><use xlink:href="#L1_174" x="350" y="0"/><use xlink:href="#L1_174" x="-350" y="350"/><use xlink:href="#L1_174" x="0" y="350"/><use xlink:href="#L1_174" x="350" y="350"/></pattern><rect x="0" y="0" width="100%" height="100%" fill="url(#pattern_L1_174)"/></g><g fi:class="KUsePattern" opacity="0.31"><pattern id="pattern_L1_175" width="350" height="350" patternUnits="userSpaceOnUse"><use xlink:href="#L1_175" x="-350" y="-350"/><use xlink:href="#L1_175" x="0" y="-350"/><use xlink:href="#L1_175" x="350" y="-350"/><use xlink:href="#L1_175" x="-350" y="0"/><use xlink:href="#L1_175" x="0" y="0"/><use xlink:href="#L1_175" x="350" y="0"/><use xlink:href="#L1_175" x="-350" y="350"/><use xlink:href="#L1_175" x="0" y="350"/><use xlink:href="#L1_175" x="350" y="350"/></pattern><rect x="0" y="0" width="100%" height="100%" fill="url(#pattern_L1_175)"/></g><g fi:class="KUsePattern" opacity="0.26"><pattern id="pattern_L1_176" width="350" height="350" patternUnits="userSpaceOnUse"><use xlink:href="#L1_176" x="-350" y="-350"/><use xlink:href="#L1_176" x="0" y="-350"/><use xlink:href="#L1_176" x="350" y="-350"/><use xlink:href="#L1_176" x="-350" y="0"/><use xlink:href="#L1_176" x="0" y="0"/><use xlink:href="#L1_176" x="350" y="0"/><use xlink:href="#L1_176" x="-350" y="350"/><use xlink:href="#L1_176" x="0" y="350"/><use xlink:href="#L1_176" x="350" y="350"/></pattern><rect x="0" y="0" width="100%" height="100%" fill="url(#pattern_L1_176)"/></g><g fi:class="KUsePattern" opacity="0.29"><pattern id="pattern_L1_177" width="350" height="350" patternUnits="userSpaceOnUse"><use xlink:href="#L1_177" x="-350" y="-350"/><use xlink:href="#L1_177" x="0" y="-350"/><use xlink:href="#L1_177" x="350" y="-350"/><use xlink:href="#L1_177" x="-350" y="0"/><use xlink:href="#L1_177" x="0" y="0"/><use xlink:href="#L1_177" x="350" y="0"/><use xlink:href="#L1_177" x="-350" y="350"/><use xlink:href="#L1_177" x="0" y="350"/><use xlink:href="#L1_177" x="350" y="350"/></pattern><rect x="0" y="0" width="100%" height="100%" fill="url(#pattern_L1_177)"/></g><g fi:class="KUsePattern" opacity="0.22"><pattern id="pattern_L1_178" width="350" height="350" patternUnits="userSpaceOnUse"><use xlink:href="#L1_178" x="-350" y="-350"/><use xlink:href="#L1_178" x="0" y="-350"/><use xlink:href="#L1_178" x="350" y="-350"/><use xlink:href="#L1_178" x="-350" y="0"/><use xlink:href="#L1_178" x="0" y="0"/><use xlink:href="#L1_178" x="350" y="0"/><use xlink:href="#L1_178" x="-350" y="350"/><use xlink:href="#L1_178" x="0" y="350"/><use xlink:href="#L1_178" x="350" y="350"/></pattern><rect x="0" y="0" width="100%" height="100%" fill="url(#pattern_L1_178)"/></g><g fi:class="KUsePattern" opacity="0.27"><pattern id="pattern_L1_179" width="350" height="350" patternUnits="userSpaceOnUse"><use xlink:href="#L1_179" x="-350" y="-350"/><use xlink:href="#L1_179" x="0" y="-350"/><use xlink:href="#L1_179" x="350" y="-350"/><use xlink:href="#L1_179" x="-350" y="0"/><use xlink:href="#L1_179" x="0" y="0"/><use xlink:href="#L1_179" x="350" y="0"/><use xlink:href="#L1_179" x="-350" y="350"/><use xlink:href="#L1_179" x="0" y="350"/><use xlink:href="#L1_179" x="350" y="350"/></pattern><rect x="0" y="0" width="100%" height="100%" fill="url(#pattern_L1_179)"/></g></svg>